<?xml version="1.0" standalone="no"?><!DOCTYPE svg PUBLIC "-//W3C//DTD SVG 1.1//EN" "http://www.w3.org/Graphics/SVG/1.1/DTD/svg11.dtd"><svg class="icon" width="64px" height="64.00px" viewBox="0 0 1024 1024" version="1.1" xmlns="http://www.w3.org/2000/svg"><path fill="#e6e6e6" d="M233.528708 663.86785c38.694277 0 70.174246-31.708166 70.174246-70.682829 0-11.187807-2.604314-21.769816-7.218402-31.182186l78.56331-44.193525 48.602951 66.63463c-9.109472 11.299347-14.57802 25.709545-14.57802 41.413202 0 36.263925 29.122271 65.661466 65.047482 65.661466 35.925211 0 65.047482-29.39754 65.047482-65.661466 0-9.899464-2.183735-19.280112-6.070252-27.698852l124.30919-65.840544 85.906555 71.633481c-2.238994 6.901177-3.465938 14.259772-3.465938 21.903869 0 38.974663 31.480992 70.683852 70.174246 70.683852 38.694277 0 70.175269-31.709189 70.175269-70.683852s-31.480992-70.682829-70.175269-70.682829c-19.272949 0-36.753065 7.870248-49.448202 20.582781l-71.932286-59.981093 81.379449-43.10268c11.035334 8.702196 24.912389 13.902638 40.001039 13.902638 35.925211 0 65.047482-29.39754 65.047482-65.661466s-29.122271-65.661466-65.047482-65.661466c-35.925211 0-65.047482 29.39754-65.047482 65.661466 0 8.985652 1.792832 17.547655 5.02955 25.348318l-88.5078 46.877657-59.074444-49.259914c11.613502-12.616342 18.732643-29.487591 18.732643-48.00841 0-38.974663-31.480992-70.682829-70.174246-70.682829-38.694277 0-70.175269 31.708166-70.175269 70.682829 0 7.976672 1.337461 15.641235 3.767813 22.799262l-100.227726 56.379055-45.194318-61.96119c17.129122-11.82635 28.375258-31.699979 28.375258-54.230112 0-36.263925-29.122271-65.661466-65.047482-65.661466-35.925211 0-65.047482 29.39754-65.047482 65.661466 0 36.263925 29.122271 65.661466 65.047482 65.661466 1.481747 0 2.947122-0.068562 4.403287-0.166799l48.756447 66.843384-80.367399 45.208645c-11.673877-8.729825-26.117844-13.904685-41.741683-13.904685-38.694277 0-70.174246 31.708166-70.174246 70.682829S194.83443 663.86785 233.528708 663.86785zM810.022581 587.881225c20.658506 0 37.465287 17.034978 37.465287 37.97387 0 20.939915-16.806781 37.97387-37.465287 37.97387-20.658506 0-37.464263-17.033955-37.464263-37.97387C772.558317 604.917226 789.365098 587.881225 810.022581 587.881225zM550.980803 357.89725c20.658506 0 37.464263 17.034978 37.464263 37.97387 0 20.938891-16.806781 37.97387-37.464263 37.97387-20.658506 0-37.465287-17.034978-37.465287-37.97387C513.514493 374.932228 530.321274 357.89725 550.980803 357.89725zM501.983879 446.406073c12.657274 12.453636 29.947056 20.148899 48.996924 20.148899 8.018627 0 15.717983-1.379417 22.901593-3.885494l56.381102 47.013757L511.861854 572.393485c-10.644431-7.670703-23.664979-12.198833-37.740556-12.198833-8.565073 0-16.736173 1.687432-24.225751 4.724605l-46.140876-63.257719L501.983879 446.406073zM233.528708 555.211151c20.658506 0 37.465287 17.034978 37.465287 37.97387s-16.806781 37.97387-37.465287 37.97387-37.465287-17.034978-37.465287-37.97387S212.870202 555.211151 233.528708 555.211151zM101.102652 812.014958 101.102652 252.616438 64.589041 252.616438 64.589041 841.84945 64.644299 841.84945 64.644299 848.495824 959.52557 848.495824 959.52557 812.014958Z" /></svg>