<?xml version="1.0" standalone="no"?><!DOCTYPE svg PUBLIC "-//W3C//DTD SVG 1.1//EN" "http://www.w3.org/Graphics/SVG/1.1/DTD/svg11.dtd"><svg class="icon" width="64px" height="64.00px" viewBox="0 0 1024 1024" version="1.1" xmlns="http://www.w3.org/2000/svg"><path fill="#e6e6e6" d="M974.769231 340.676923C929.476923 153.6 732.553846 39.384615 515.938462 39.384615 252.061538 39.384615 39.384615 250.092308 39.384615 512s212.676923 472.615385 476.553847 472.615385c366.276923 0 336.738462-185.107692 220.553846-257.969231-68.923077-43.323077-106.338462-143.753846-37.415385-214.646154 128-131.938462 334.769231 78.769231 275.692308-171.323077zM256 669.538462c-55.138462 0-98.461538-43.323077-98.461538-98.461539s43.323077-98.461538 98.461538-98.461538 98.461538 43.323077 98.461538 98.461538-43.323077 98.461538-98.461538 98.461539z m19.692308-374.153847c0-55.138462 43.323077-98.461538 98.461538-98.461538s98.461538 43.323077 98.461539 98.461538-43.323077 98.461538-98.461539 98.461539-98.461538-43.323077-98.461538-98.461539z m216.615384 571.076923c-55.138462 0-98.461538-43.323077-98.461538-98.461538s43.323077-98.461538 98.461538-98.461538 98.461538 43.323077 98.461539 98.461538-43.323077 98.461538-98.461539 98.461538z m177.23077-512c-55.138462 0-98.461538-43.323077-98.461539-98.461538s43.323077-98.461538 98.461539-98.461538 98.461538 43.323077 98.461538 98.461538-43.323077 98.461538-98.461538 98.461538z" /></svg>