<?xml version="1.0" standalone="no"?><!DOCTYPE svg PUBLIC "-//W3C//DTD SVG 1.1//EN" "http://www.w3.org/Graphics/SVG/1.1/DTD/svg11.dtd"><svg class="icon" width="64px" height="64.00px" viewBox="0 0 1024 1024" version="1.1" xmlns="http://www.w3.org/2000/svg"><path fill="#e6e6e6" d="M496.004951 377.337632L861.197029 12.381391c12.381391-12.381391 33.724551-11.320129 47.40304 2.35836l102.824505 102.824505c13.678489 13.678489 14.621833 35.021649 2.240442 47.40304L647.883349 530.513128l40.799631 41.153385c40.799632 33.606633 88.556426 37.380009 132.304007 34.078305 112.729618-7.782589 206.356518 187.017964 174.046983 216.615385-7.900507 0.235836-11.791801-1.17918-11.791801-1.17918s-55.775219-38.205435-92.211884-60.020268c-36.672501-20.75357-56.364809-1.532934-56.364808-1.532934-45.04468 29.715339-63.911561 76.175035-65.680332 92.211884-0.707508 16.508521 18.513128 36.200829 18.513128 36.200829l110.960847 69.453708s3.773376 4.834638 7.075081 10.494703c-33.606633 60.963611-185.367112 32.309535-227.345924-7.782588-39.502533-39.856287-39.030861-58.605251-44.808844-113.437126s-13.914325-94.80608-47.756794-129.002303l-114.38047-115.323814-318.614463 318.378627 16.508521 16.508522-115.677568 86.669737L1.103063 971.644404l85.490557-116.974667 18.513128 18.631046 318.850299-318.614463-96.339014-97.046523c-114.38047-115.795486-181.829572 67.56702-321.562414-214.021188-13.560571-28.654076-0.58959-44.926762 2.830033-48.110548 8.018425-0.235836 11.909719 1.17918 11.909719 1.17918s55.421465 39.266697 92.093966 60.020267c36.790419 20.871488 56.482727 1.532934 56.482726 1.532934 44.926762-29.715339 63.911561-76.175035 65.562414-92.211884 0.707508-16.508521-18.513128-36.200829-18.513128-36.200829L105.460502 60.374021s-3.655458-4.71672-7.075081-10.494703c31.719945-61.906955 251.754952-67.331184 271.801014 122.163059 4.12713 47.520958 11.791801 82.896361 35.493321 114.262552l90.325195 91.032703z" /></svg>