<?xml version="1.0" standalone="no"?><!DOCTYPE svg PUBLIC "-//W3C//DTD SVG 1.1//EN" "http://www.w3.org/Graphics/SVG/1.1/DTD/svg11.dtd"><svg class="icon" width="64px" height="64.00px" viewBox="0 0 1024 1024" version="1.1" xmlns="http://www.w3.org/2000/svg"><path fill="#e6e6e6" d="M86.176197 707.666378l0 70.552869c0 0-2.494821 132.858914 122.396631 180.409906L208.572828 626.806769C208.572828 626.806769 121.402489 672.548556 86.176197 707.666378L86.176197 707.666378 86.176197 707.666378 86.176197 707.666378zM269.750165 609.452519l0 209.597669 205.903533 0c0 0 0-160.718425 111.864764-209.597669 0 0-43.904952-10.868535-46.560432-13.178137 0 0-34.014698 37.645388-106.46887 38.97364 0 0-48.654117 3.292999-106.784048-38.97364C327.663156 596.274382 276.169365 603.850941 269.750165 609.452519L269.750165 609.452519 269.750165 609.452519 269.750165 609.452519zM276.589944 458.440154c0 0 31.807427 141.007501 152.048975 142.227282 0 0 99.370195 11.56029 149.157111-142.227282 0 0 30.715559 3.354398 30.715559-50.443879 0 0 9.314133-46.725184-44.539402-33.708729 0 0-26.542516 12.662391-144.010905 13.006222 0 0-74.78117 2.775206-125.453247-11.395538 0 0-42.337247-12.08013-49.160653 14.170744l0 34.935674C245.346359 424.949388 247.492232 457.337029 276.589944 458.440154L276.589944 458.440154 276.589944 458.440154 276.589944 458.440154zM204.861296 301.81393c0 0 8.668427 51.534723 201.90036 57.720609 0 0 144.655588 4.975315 200.301955-28.868491l-14.46034-145.056724c0 0-39.566134-82.82231-144.239102-100.523461L448.364169 62.365396l-44.536332 0-0.357134 23.075555c0 0-73.748654 4.502547-131.056871 79.523171 0 0-31.342846 27.994588-41.176818 115.383914L204.861296 301.81393 204.861296 301.81393 204.861296 301.81393 204.861296 301.81393zM643.328559 958.612781 643.328559 772.026198c0 0 3.875261-10.513448 15.790638-10.869558l147.375535 0c0 0 9.649777 2.029216 11.968589 12.316513l0 185.139627 11.924587 0c0 0 121.160477-69.691245 102.597703-197.456141 0 0-14.861476-111.910812-139.271974-154.594961l35.392068-410.244478c0 0 3.709485-95.193059-99.705839-101.397365 0 0-90.346681-2.428306-99.369172 101.397365l71.719438-11.916401 28.395724-27.650757 34.180474 34.644031-33.780361 34.190707-34.180474-34.190707 9.830903-9.821693-74.847685 10.750855 39.629579 408.515091c0 0-138.069589 49.279357-144.654564 189.132568 0 0-7.467065 94.093005 105.953124 168.712493l11.042497 0 0-0.071631L643.328559 958.611757 643.328559 958.612781zM643.328559 958.612781" /></svg>