<?xml version="1.0" standalone="no"?><!DOCTYPE svg PUBLIC "-//W3C//DTD SVG 1.1//EN" "http://www.w3.org/Graphics/SVG/1.1/DTD/svg11.dtd"><svg class="icon" width="64px" height="64.00px" viewBox="0 0 1024 1024" version="1.1" xmlns="http://www.w3.org/2000/svg"><path fill="#e6e6e6" d="M512 64.021106c-88.814792 0-271.953855 159.02383-383.981325 156.982334 0 2.041496 0 2.041496 22.587438 235.478106 12.83226 243.623623 141.03206 453.204919 361.393887 503.496325 220.366943-50.291406 349.214497-261.404592 361.393887-503.496325 21.935592-231.905744 22.587438-235.478106 22.587438-235.478106C785.583982 223.044936 600.814792 64.021106 512 64.021106z m255.428483 260.612552a14.052041 14.052041 0 0 1-2.275832 3.666506L486.293525 653.087319c-7.67582 8.937556-21.143553 9.962909-30.082132 2.286066a20.812001 20.812001 0 0 1-1.790786-1.726318L315.530326 502.927367c-6.650467-7.218402-6.191003-18.457374 1.026377-25.107841a17.746176 17.746176 0 0 1 4.88424-3.197832l11.410887-5.02034a21.331841 21.331841 0 0 1 21.310352 2.400677l97.238648 72.215741c8.242731 6.122441 19.676132 5.505387 27.210735-1.471514L732.143862 308.048935a21.327748 21.327748 0 0 1 22.825869-3.981685l5.006013 2.125407c7.150864 3.03308 10.487865 11.290137 7.452739 18.441001z" /></svg>