<?xml version="1.0" standalone="no"?><!DOCTYPE svg PUBLIC "-//W3C//DTD SVG 1.1//EN" "http://www.w3.org/Graphics/SVG/1.1/DTD/svg11.dtd"><svg class="icon" width="64px" height="64.00px" viewBox="0 0 1024 1024" version="1.1" xmlns="http://www.w3.org/2000/svg"><path fill="#bfbfbf" d="M397.065 309.472m-179.229 0a179.229 179.229 0 1 0 358.458 0 179.229 179.229 0 1 0-358.458 0ZM710.715 443.894m-134.421 0a134.421 134.421 0 1 0 268.842 0 134.421 134.421 0 1 0-268.842 0ZM958.167 811.405c-16.235-131.576-120.835-233.09-247.452-233.09a233.207 233.207 0 0 0-79.622 13.969c-60.127-64.034-142.785-103.583-234.028-103.583-172.93 0-315.059 142.02-331.305 323.664-1.672 18.7 13.112 34.793 31.886 34.793h828.737c19.159 0 34.13-16.737 31.784-35.753z" /></svg>