<?xml version="1.0" standalone="no"?><!DOCTYPE svg PUBLIC "-//W3C//DTD SVG 1.1//EN" "http://www.w3.org/Graphics/SVG/1.1/DTD/svg11.dtd"><svg class="icon" width="64px" height="64.00px" viewBox="0 0 1024 1024" version="1.1" xmlns="http://www.w3.org/2000/svg"><path fill="#e6e6e6" d="M154.203136 409.772032l255.56992 0 0-102.227968-255.56992 0L154.203136 409.772032zM154.203136 971.324416c0 51.265536 51.113984 51.815424 51.113984 51.815424l153.341952 0c0 0 51.113984 0.295936 51.113984-49.719296 0-141.760512 0-538.090496 0-538.090496l-255.56992 0C154.203136 435.329024 154.203136 827.667456 154.203136 971.324416zM26.4192 128.646144c0 153.341952 127.78496 153.341952 127.78496 153.341952L460.88704 281.988096c0 103.123968-0.198656 153.341952 102.226944 153.341952-31.446016 0-25.555968-153.341952-25.555968-153.341952l127.783936 0c0 0 0-30.649344 0-51.113984-230.60992 0-258.613248-230.012928-511.138816-230.012928C126.8992 0.861184 26.4192 5.05344 26.4192 128.646144zM716.455936 230.874112l0 51.113984 281.125888 0 0-51.113984L716.455936 230.874112zM716.455936 351.766528l243.441664 140.563456 25.558016-44.222464L742.013952 307.545088 716.455936 351.766528zM985.455616 64.753664 959.8976 20.425728 716.455936 160.989184l25.558016 44.326912L985.455616 64.753664z" /></svg>